# xmcd
#
# Track frame offsets:
# 150
# 15619
# 30651
# 45411
# 59239
# 70875
# 85189
# 98467
# 111958
# 124072
# 137242
# 151056
# 166581
# 181760
# 196188
# 209919
# 222157
# 235706
# 248543
# 263558
#
# Disc length: 3714 seconds
#
#
# Revision: 0
# Processed by: cddbd v1.5.2PL0 Copyright (c) Steve Scherf et al.
# Submitted via: FreeRIP 2.96 
#
DISCID=080e8014
DTITLE=Jimmie Rodgers - Country Music Legends [CD1]
DYEAR=2006
DGENRE=Country
TTITLE0=Blue Yodel No.1 (T For Texas)
TTITLE1=Blue Yodel No.2 ( My Lovin' Gal, Lucille)
TTITLE2=Blue Yodel No.3 (Evening Sun Blues)
TTITLE3=Blue Yodel No.4 (California Blues
TTITLE4=Blue Yodel No.5
TTITLE5=Blue Yodel No.6 (Midnight Turning Blues)
TTITLE6=Blue Yodel No.7 (Anniversary Blues)
TTITLE7=Blue Yodel No.8 (Mule Skinner Blues)
TTITLE8=Blue Yodel No.9 (Standin On The Corner)
TTITLE9=Blue Yodel No.10 (Ground Hog Rootin' In The Back Yard)
TTITLE10=Blue Yodel No.11
TTITLE11=Blue Yodel No.12 (Barefoot Blues)
TTITLE12=Blue Yodel No.13 (Women Made A Fool Out Of Me)
TTITLE13=The Brakeman's Blues (Yodelling The Blues Away)
TTITLE14=Sleep Baby, Sleep
TTITLE15=Let Me Be Your Side Track
TTITLE16=Train Whistle Blues
TTITLE17=My Blue Eyed Jane
TTITLE18=Away Out Of The Mountain
TTITLE19=In The Jailhouse Now No.1
EXTD=
EXTT0=
EXTT1=
EXTT2=
EXTT3=
EXTT4=
EXTT5=
EXTT6=
EXTT7=
EXTT8=
EXTT9=
EXTT10=
EXTT11=
EXTT12=
EXTT13=
EXTT14=
EXTT15=
EXTT16=
EXTT17=
EXTT18=
EXTT19=
PLAYORDER=
